<svg width="339" height="34" viewBox="0 0 339 34" fill="none" xmlns="http://www.w3.org/2000/svg">
<path d="M33.3875 14L38.1425 3.5H39.6275L44.3975 14H42.8225L38.5775 4.34H39.1775L34.9325 14H33.3875ZM35.4125 11.375L35.8175 10.175H41.7275L42.1625 11.375H35.4125ZM51.7297 14L48.6547 10.13L49.8397 9.41L53.4247 14H51.7297ZM45.9697 14V6.05H47.4097V14H45.9697ZM46.9747 10.64V9.41H49.5997V10.64H46.9747ZM49.9597 10.19L48.6247 10.01L51.6697 6.05H53.2147L49.9597 10.19ZM58.1359 14.09C57.3259 14.09 56.6009 13.915 55.9609 13.565C55.3309 13.215 54.8359 12.735 54.4759 12.125C54.1159 11.515 53.9359 10.815 53.9359 10.025C53.9359 9.235 54.1159 8.535 54.4759 7.925C54.8359 7.315 55.3309 6.84 55.9609 6.5C56.6009 6.15 57.3259 5.975 58.1359 5.975C58.8559 5.975 59.4959 6.12 60.0559 6.41C60.6259 6.69 61.0659 7.11 61.3759 7.67L60.2809 8.375C60.0209 7.985 59.7009 7.7 59.3209 7.52C58.9509 7.33 58.5509 7.235 58.1209 7.235C57.6009 7.235 57.1359 7.35 56.7259 7.58C56.3159 7.81 55.9909 8.135 55.7509 8.555C55.5109 8.965 55.3909 9.455 55.3909 10.025C55.3909 10.595 55.5109 11.09 55.7509 11.51C55.9909 11.93 56.3159 12.255 56.7259 12.485C57.1359 12.715 57.6009 12.83 58.1209 12.83C58.5509 12.83 58.9509 12.74 59.3209 12.56C59.7009 12.37 60.0209 12.08 60.2809 11.69L61.3759 12.38C61.0659 12.93 60.6259 13.355 60.0559 13.655C59.4959 13.945 58.8559 14.09 58.1359 14.09ZM68.1152 14V12.32L68.0402 12.005V9.14C68.0402 8.53 67.8602 8.06 67.5002 7.73C67.1502 7.39 66.6202 7.22 65.9102 7.22C65.4402 7.22 64.9802 7.3 64.5302 7.46C64.0802 7.61 63.7002 7.815 63.3902 8.075L62.7902 6.995C63.2002 6.665 63.6902 6.415 64.2602 6.245C64.8402 6.065 65.4452 5.975 66.0752 5.975C67.1652 5.975 68.0052 6.24 68.5952 6.77C69.1852 7.3 69.4802 8.11 69.4802 9.2V14H68.1152ZM65.5052 14.09C64.9152 14.09 64.3952 13.99 63.9452 13.79C63.5052 13.59 63.1652 13.315 62.9252 12.965C62.6852 12.605 62.5652 12.2 62.5652 11.75C62.5652 11.32 62.6652 10.93 62.8652 10.58C63.0752 10.23 63.4102 9.95 63.8702 9.74C64.3402 9.53 64.9702 9.425 65.7602 9.425H68.2802V10.46H65.8202C65.1002 10.46 64.6152 10.58 64.3652 10.82C64.1152 11.06 63.9902 11.35 63.9902 11.69C63.9902 12.08 64.1452 12.395 64.4552 12.635C64.7652 12.865 65.1952 12.98 65.7452 12.98C66.2852 12.98 66.7552 12.86 67.1552 12.62C67.5652 12.38 67.8602 12.03 68.0402 11.57L68.3252 12.56C68.1352 13.03 67.8002 13.405 67.3202 13.685C66.8402 13.955 66.2352 14.09 65.5052 14.09ZM72.0732 14V6.05H73.5132V11.84L78.3882 6.05H79.6932V14H78.2532V8.21L73.3932 14H72.0732ZM75.7932 5.015C75.0632 5.015 74.4882 4.84 74.0682 4.49C73.6582 4.13 73.4482 3.615 73.4382 2.945H74.4132C74.4232 3.325 74.5482 3.625 74.7882 3.845C75.0382 4.065 75.3682 4.175 75.7782 4.175C76.1882 4.175 76.5182 4.065 76.7682 3.845C77.0182 3.625 77.1482 3.325 77.1582 2.945H78.1632C78.1532 3.615 77.9382 4.13 77.5182 4.49C77.0982 4.84 76.5232 5.015 75.7932 5.015ZM81.9483 10.505V9.26H85.9833V10.505H81.9483ZM90.4725 14.12C89.7325 14.12 89.0125 14.005 88.3125 13.775C87.6225 13.545 87.0575 13.235 86.6175 12.845L87.3075 11.66C87.6575 11.99 88.1125 12.26 88.6725 12.47C89.2325 12.68 89.8325 12.785 90.4725 12.785C91.2525 12.785 91.8575 12.62 92.2875 12.29C92.7275 11.95 92.9475 11.495 92.9475 10.925C92.9475 10.375 92.7375 9.935 92.3175 9.605C91.9075 9.265 91.2525 9.095 90.3525 9.095H89.5125V8.045L92.6325 4.205L92.8425 4.805H87.0975V3.5H94.0275V4.52L90.9225 8.345L90.1425 7.88H90.6375C91.9075 7.88 92.8575 8.165 93.4875 8.735C94.1275 9.305 94.4475 10.03 94.4475 10.91C94.4475 11.5 94.3025 12.04 94.0125 12.53C93.7225 13.02 93.2825 13.41 92.6925 13.7C92.1125 13.98 91.3725 14.12 90.4725 14.12ZM101.396 14V12.32L101.321 12.005V9.14C101.321 8.53 101.141 8.06 100.781 7.73C100.431 7.39 99.9015 7.22 99.1915 7.22C98.7215 7.22 98.2615 7.3 97.8115 7.46C97.3615 7.61 96.9815 7.815 96.6715 8.075L96.0715 6.995C96.4815 6.665 96.9715 6.415 97.5415 6.245C98.1215 6.065 98.7265 5.975 99.3565 5.975C100.446 5.975 101.286 6.24 101.876 6.77C102.466 7.3 102.761 8.11 102.761 9.2V14H101.396ZM98.7865 14.09C98.1965 14.09 97.6765 13.99 97.2265 13.79C96.7865 13.59 96.4465 13.315 96.2065 12.965C95.9665 12.605 95.8465 12.2 95.8465 11.75C95.8465 11.32 95.9465 10.93 96.1465 10.58C96.3565 10.23 96.6915 9.95 97.1515 9.74C97.6215 9.53 98.2515 9.425 99.0415 9.425H101.561V10.46H99.1015C98.3815 10.46 97.8965 10.58 97.6465 10.82C97.3965 11.06 97.2715 11.35 97.2715 11.69C97.2715 12.08 97.4265 12.395 97.7365 12.635C98.0465 12.865 98.4765 12.98 99.0265 12.98C99.5665 12.98 100.036 12.86 100.436 12.62C100.846 12.38 101.141 12.03 101.321 11.57L101.606 12.56C101.416 13.03 101.081 13.405 100.601 13.685C100.121 13.955 99.5165 14.09 98.7865 14.09ZM104.754 16.22L105.504 13.19L105.699 14.06C105.409 14.06 105.164 13.97 104.964 13.79C104.774 13.61 104.679 13.365 104.679 13.055C104.679 12.755 104.774 12.51 104.964 12.32C105.164 12.13 105.404 12.035 105.684 12.035C105.974 12.035 106.209 12.135 106.389 12.335C106.569 12.525 106.659 12.765 106.659 13.055C106.659 13.155 106.649 13.255 106.629 13.355C106.619 13.445 106.594 13.555 106.554 13.685C106.524 13.805 106.474 13.955 106.404 14.135L105.699 16.22H104.754ZM116.516 14.12C115.586 14.12 114.791 13.915 114.131 13.505C113.471 13.095 112.966 12.505 112.616 11.735C112.276 10.955 112.106 10.005 112.106 8.885C112.106 7.695 112.316 6.69 112.736 5.87C113.156 5.05 113.741 4.43 114.491 4.01C115.241 3.59 116.101 3.38 117.071 3.38C117.571 3.38 118.046 3.43 118.496 3.53C118.956 3.63 119.351 3.785 119.681 3.995L119.111 5.165C118.841 4.975 118.531 4.845 118.181 4.775C117.841 4.705 117.481 4.67 117.101 4.67C116.031 4.67 115.181 5.005 114.551 5.675C113.921 6.335 113.606 7.32 113.606 8.63C113.606 8.84 113.616 9.09 113.636 9.38C113.656 9.67 113.706 9.955 113.786 10.235L113.276 9.725C113.426 9.265 113.661 8.88 113.981 8.57C114.311 8.25 114.701 8.015 115.151 7.865C115.611 7.705 116.106 7.625 116.636 7.625C117.336 7.625 117.956 7.755 118.496 8.015C119.036 8.275 119.461 8.645 119.771 9.125C120.081 9.595 120.236 10.155 120.236 10.805C120.236 11.475 120.071 12.06 119.741 12.56C119.411 13.06 118.966 13.445 118.406 13.715C117.846 13.985 117.216 14.12 116.516 14.12ZM116.456 12.905C116.916 12.905 117.316 12.82 117.656 12.65C118.006 12.48 118.281 12.245 118.481 11.945C118.681 11.635 118.781 11.275 118.781 10.865C118.781 10.245 118.566 9.755 118.136 9.395C117.706 9.025 117.121 8.84 116.381 8.84C115.901 8.84 115.481 8.93 115.121 9.11C114.761 9.29 114.476 9.535 114.266 9.845C114.066 10.145 113.966 10.49 113.966 10.88C113.966 11.24 114.061 11.575 114.251 11.885C114.441 12.185 114.721 12.43 115.091 12.62C115.461 12.81 115.916 12.905 116.456 12.905ZM121.199 14V12.98L125.474 8.855C125.854 8.495 126.134 8.18 126.314 7.91C126.504 7.63 126.629 7.375 126.689 7.145C126.759 6.905 126.794 6.675 126.794 6.455C126.794 5.915 126.604 5.49 126.224 5.18C125.844 4.87 125.289 4.715 124.559 4.715C123.999 4.715 123.494 4.81 123.044 5C122.594 5.18 122.204 5.465 121.874 5.855L120.854 4.97C121.254 4.46 121.789 4.07 122.459 3.8C123.139 3.52 123.884 3.38 124.694 3.38C125.424 3.38 126.059 3.5 126.599 3.74C127.139 3.97 127.554 4.305 127.844 4.745C128.144 5.185 128.294 5.705 128.294 6.305C128.294 6.645 128.249 6.98 128.159 7.31C128.069 7.64 127.899 7.99 127.649 8.36C127.399 8.73 127.039 9.145 126.569 9.605L122.759 13.28L122.399 12.695H128.744V14H121.199ZM135.246 14.12C135.236 14.12 135.201 14.12 135.141 14.12C135.091 14.12 135.041 14.12 134.991 14.12C134.941 14.12 134.911 14.12 134.901 14.12C133.271 14.1 132.006 13.74 131.106 13.04C130.206 12.33 129.756 11.32 129.756 10.01C129.756 8.71 130.206 7.715 131.106 7.025C132.016 6.325 133.296 5.97 134.946 5.96C134.966 5.96 134.996 5.96 135.036 5.96C135.086 5.96 135.131 5.96 135.171 5.96C135.221 5.96 135.251 5.96 135.261 5.96C136.931 5.96 138.226 6.31 139.146 7.01C140.076 7.71 140.541 8.71 140.541 10.01C140.541 11.33 140.076 12.345 139.146 13.055C138.216 13.765 136.916 14.12 135.246 14.12ZM135.216 12.86C136.086 12.86 136.806 12.75 137.376 12.53C137.956 12.31 138.391 11.99 138.681 11.57C138.971 11.15 139.116 10.63 139.116 10.01C139.116 9.4 138.971 8.89 138.681 8.48C138.391 8.07 137.956 7.76 137.376 7.55C136.806 7.34 136.086 7.235 135.216 7.235C135.196 7.235 135.156 7.235 135.096 7.235C135.036 7.235 135.001 7.235 134.991 7.235C134.141 7.235 133.431 7.345 132.861 7.565C132.301 7.775 131.881 8.085 131.601 8.495C131.321 8.905 131.181 9.41 131.181 10.01C131.181 10.62 131.321 11.135 131.601 11.555C131.891 11.975 132.316 12.295 132.876 12.515C133.446 12.735 134.151 12.85 134.991 12.86C135.011 12.86 135.046 12.86 135.096 12.86C135.156 12.86 135.196 12.86 135.216 12.86ZM134.436 16.91V2.87H135.846V16.91H134.436ZM141.8 16.22L142.55 13.19L142.745 14.06C142.455 14.06 142.21 13.97 142.01 13.79C141.82 13.61 141.725 13.365 141.725 13.055C141.725 12.755 141.82 12.51 142.01 12.32C142.21 12.13 142.45 12.035 142.73 12.035C143.02 12.035 143.255 12.135 143.435 12.335C143.615 12.525 143.705 12.765 143.705 13.055C143.705 13.155 143.695 13.255 143.675 13.355C143.665 13.445 143.64 13.555 143.6 13.685C143.57 13.805 143.52 13.955 143.45 14.135L142.745 16.22H141.8ZM148.612 14L153.367 3.5H154.852L159.622 14H158.047L153.802 4.34H154.402L150.157 14H148.612ZM150.637 11.375L151.042 10.175H156.952L157.387 11.375H150.637ZM159.874 13.985L159.964 12.77C160.034 12.78 160.099 12.79 160.159 12.8C160.219 12.81 160.274 12.815 160.324 12.815C160.644 12.815 160.894 12.705 161.074 12.485C161.264 12.265 161.404 11.975 161.494 11.615C161.584 11.245 161.649 10.83 161.689 10.37C161.729 9.91 161.759 9.45 161.779 8.99L161.914 6.05H168.019V14H166.579V6.89L166.924 7.31H162.844L163.174 6.875L163.069 9.08C163.039 9.78 162.984 10.435 162.904 11.045C162.824 11.655 162.699 12.19 162.529 12.65C162.369 13.11 162.144 13.47 161.854 13.73C161.574 13.99 161.209 14.12 160.759 14.12C160.629 14.12 160.489 14.105 160.339 14.075C160.199 14.055 160.044 14.025 159.874 13.985ZM170.804 14V6.05H172.289L175.709 11.93H175.109L178.619 6.05H179.969V14H178.664V7.67L178.904 7.805L175.694 13.1H175.064L171.839 7.7L172.124 7.64V14H170.804ZM187.646 14V12.32L187.571 12.005V9.14C187.571 8.53 187.391 8.06 187.031 7.73C186.681 7.39 186.151 7.22 185.441 7.22C184.971 7.22 184.511 7.3 184.061 7.46C183.611 7.61 183.231 7.815 182.921 8.075L182.321 6.995C182.731 6.665 183.221 6.415 183.791 6.245C184.371 6.065 184.976 5.975 185.606 5.975C186.696 5.975 187.536 6.24 188.126 6.77C188.716 7.3 189.011 8.11 189.011 9.2V14H187.646ZM185.036 14.09C184.446 14.09 183.926 13.99 183.476 13.79C183.036 13.59 182.696 13.315 182.456 12.965C182.216 12.605 182.096 12.2 182.096 11.75C182.096 11.32 182.196 10.93 182.396 10.58C182.606 10.23 182.941 9.95 183.401 9.74C183.871 9.53 184.501 9.425 185.291 9.425H187.811V10.46H185.351C184.631 10.46 184.146 10.58 183.896 10.82C183.646 11.06 183.521 11.35 183.521 11.69C183.521 12.08 183.676 12.395 183.986 12.635C184.296 12.865 184.726 12.98 185.276 12.98C185.816 12.98 186.286 12.86 186.686 12.62C187.096 12.38 187.391 12.03 187.571 11.57L187.856 12.56C187.666 13.03 187.331 13.405 186.851 13.685C186.371 13.955 185.766 14.09 185.036 14.09ZM193.179 14V6.935L193.539 7.31H190.269V6.05H197.529V7.31H194.274L194.619 6.935V14H193.179ZM206.862 14V6.05H208.302V14H206.862ZM202.587 8.75C203.597 8.76 204.362 8.99 204.882 9.44C205.412 9.89 205.677 10.525 205.677 11.345C205.677 12.205 205.387 12.87 204.807 13.34C204.237 13.8 203.417 14.025 202.347 14.015L199.002 14V6.05H200.442V8.735L202.587 8.75ZM202.242 12.92C202.882 12.93 203.372 12.8 203.712 12.53C204.052 12.26 204.222 11.86 204.222 11.33C204.222 10.81 204.052 10.43 203.712 10.19C203.382 9.95 202.892 9.825 202.242 9.815L200.442 9.785V12.905L202.242 12.92ZM210.502 16.22L211.252 13.19L211.447 14.06C211.157 14.06 210.912 13.97 210.712 13.79C210.522 13.61 210.427 13.365 210.427 13.055C210.427 12.755 210.522 12.51 210.712 12.32C210.912 12.13 211.152 12.035 211.432 12.035C211.722 12.035 211.957 12.135 212.137 12.335C212.317 12.525 212.407 12.765 212.407 13.055C212.407 13.155 212.397 13.255 212.377 13.355C212.367 13.445 212.342 13.555 212.302 13.685C212.272 13.805 212.222 13.955 212.152 14.135L211.447 16.22H210.502ZM225.833 14L222.023 8.825L223.238 8.075L227.543 14H225.833ZM218.768 14V3.5H220.238V14H218.768ZM219.788 9.38V8.06H223.193V9.38H219.788ZM223.373 8.915L221.993 8.705L225.758 3.5H227.363L223.373 8.915ZM233.818 14V12.32L233.743 12.005V9.14C233.743 8.53 233.563 8.06 233.203 7.73C232.853 7.39 232.323 7.22 231.613 7.22C231.143 7.22 230.683 7.3 230.233 7.46C229.783 7.61 229.403 7.815 229.093 8.075L228.493 6.995C228.903 6.665 229.393 6.415 229.963 6.245C230.543 6.065 231.148 5.975 231.778 5.975C232.868 5.975 233.708 6.24 234.298 6.77C234.888 7.3 235.183 8.11 235.183 9.2V14H233.818ZM231.208 14.09C230.618 14.09 230.098 13.99 229.648 13.79C229.208 13.59 228.868 13.315 228.628 12.965C228.388 12.605 228.268 12.2 228.268 11.75C228.268 11.32 228.368 10.93 228.568 10.58C228.778 10.23 229.113 9.95 229.573 9.74C230.043 9.53 230.673 9.425 231.463 9.425H233.983V10.46H231.523C230.803 10.46 230.318 10.58 230.068 10.82C229.818 11.06 229.693 11.35 229.693 11.69C229.693 12.08 229.848 12.395 230.158 12.635C230.468 12.865 230.898 12.98 231.448 12.98C231.988 12.98 232.458 12.86 232.858 12.62C233.268 12.38 233.563 12.03 233.743 11.57L234.028 12.56C233.838 13.03 233.503 13.405 233.023 13.685C232.543 13.955 231.938 14.09 231.208 14.09ZM239.97 14.105C239.37 14.105 238.78 14.03 238.2 13.88C237.63 13.72 237.12 13.495 236.67 13.205L237.105 12.11C237.485 12.35 237.92 12.54 238.41 12.68C238.9 12.81 239.395 12.875 239.895 12.875C240.355 12.875 240.75 12.82 241.08 12.71C241.42 12.6 241.68 12.45 241.86 12.26C242.04 12.06 242.13 11.83 242.13 11.57C242.13 11.2 241.965 10.915 241.635 10.715C241.305 10.515 240.845 10.415 240.255 10.415H238.815V9.38H240.165C240.515 9.38 240.82 9.34 241.08 9.26C241.34 9.18 241.54 9.06 241.68 8.9C241.83 8.73 241.905 8.535 241.905 8.315C241.905 8.075 241.82 7.87 241.65 7.7C241.48 7.53 241.24 7.4 240.93 7.31C240.63 7.22 240.275 7.175 239.865 7.175C239.465 7.185 239.055 7.24 238.635 7.34C238.225 7.44 237.805 7.595 237.375 7.805L236.985 6.68C237.465 6.45 237.935 6.275 238.395 6.155C238.865 6.025 239.33 5.955 239.79 5.945C240.48 5.925 241.095 6.005 241.635 6.185C242.175 6.355 242.6 6.605 242.91 6.935C243.23 7.265 243.39 7.655 243.39 8.105C243.39 8.485 243.27 8.825 243.03 9.125C242.79 9.415 242.47 9.645 242.07 9.815C241.67 9.985 241.21 10.07 240.69 10.07L240.75 9.725C241.64 9.725 242.34 9.9 242.85 10.25C243.36 10.6 243.615 11.075 243.615 11.675C243.615 12.155 243.455 12.58 243.135 12.95C242.815 13.31 242.38 13.595 241.83 13.805C241.29 14.005 240.67 14.105 239.97 14.105ZM250.679 14V12.32L250.604 12.005V9.14C250.604 8.53 250.424 8.06 250.064 7.73C249.714 7.39 249.184 7.22 248.474 7.22C248.004 7.22 247.544 7.3 247.094 7.46C246.644 7.61 246.264 7.815 245.954 8.075L245.354 6.995C245.764 6.665 246.254 6.415 246.824 6.245C247.404 6.065 248.009 5.975 248.639 5.975C249.729 5.975 250.569 6.24 251.159 6.77C251.749 7.3 252.044 8.11 252.044 9.2V14H250.679ZM248.069 14.09C247.479 14.09 246.959 13.99 246.509 13.79C246.069 13.59 245.729 13.315 245.489 12.965C245.249 12.605 245.129 12.2 245.129 11.75C245.129 11.32 245.229 10.93 245.429 10.58C245.639 10.23 245.974 9.95 246.434 9.74C246.904 9.53 247.534 9.425 248.324 9.425H250.844V10.46H248.384C247.664 10.46 247.179 10.58 246.929 10.82C246.679 11.06 246.554 11.35 246.554 11.69C246.554 12.08 246.709 12.395 247.019 12.635C247.329 12.865 247.759 12.98 248.309 12.98C248.849 12.98 249.319 12.86 249.719 12.62C250.129 12.38 250.424 12.03 250.604 11.57L250.889 12.56C250.699 13.03 250.364 13.405 249.884 13.685C249.404 13.955 248.799 14.09 248.069 14.09ZM253.377 14L256.797 9.56L256.782 10.295L253.527 6.05H255.132L257.622 9.32H257.007L259.497 6.05H261.072L257.772 10.325L257.787 9.56L261.237 14H259.602L256.977 10.52L257.562 10.61L254.982 14H253.377ZM265.953 14.09C265.143 14.09 264.418 13.915 263.778 13.565C263.148 13.215 262.653 12.735 262.293 12.125C261.933 11.515 261.753 10.815 261.753 10.025C261.753 9.235 261.933 8.535 262.293 7.925C262.653 7.315 263.148 6.84 263.778 6.5C264.418 6.15 265.143 5.975 265.953 5.975C266.673 5.975 267.313 6.12 267.873 6.41C268.443 6.69 268.883 7.11 269.193 7.67L268.098 8.375C267.838 7.985 267.518 7.7 267.138 7.52C266.768 7.33 266.368 7.235 265.938 7.235C265.418 7.235 264.953 7.35 264.543 7.58C264.133 7.81 263.808 8.135 263.568 8.555C263.328 8.965 263.208 9.455 263.208 10.025C263.208 10.595 263.328 11.09 263.568 11.51C263.808 11.93 264.133 12.255 264.543 12.485C264.953 12.715 265.418 12.83 265.938 12.83C266.368 12.83 266.768 12.74 267.138 12.56C267.518 12.37 267.838 12.08 268.098 11.69L269.193 12.38C268.883 12.93 268.443 13.355 267.873 13.655C267.313 13.945 266.673 14.09 265.953 14.09ZM272.53 14V6.935L272.89 7.31H269.62V6.05H276.88V7.31H273.625L273.97 6.935V14H272.53ZM283.228 14V12.32L283.153 12.005V9.14C283.153 8.53 282.973 8.06 282.613 7.73C282.263 7.39 281.733 7.22 281.023 7.22C280.553 7.22 280.093 7.3 279.643 7.46C279.193 7.61 278.813 7.815 278.503 8.075L277.903 6.995C278.313 6.665 278.803 6.415 279.373 6.245C279.953 6.065 280.558 5.975 281.188 5.975C282.278 5.975 283.118 6.24 283.708 6.77C284.298 7.3 284.593 8.11 284.593 9.2V14H283.228ZM280.618 14.09C280.028 14.09 279.508 13.99 279.058 13.79C278.618 13.59 278.278 13.315 278.038 12.965C277.798 12.605 277.678 12.2 277.678 11.75C277.678 11.32 277.778 10.93 277.978 10.58C278.188 10.23 278.523 9.95 278.983 9.74C279.453 9.53 280.083 9.425 280.873 9.425H283.393V10.46H280.933C280.213 10.46 279.728 10.58 279.478 10.82C279.228 11.06 279.103 11.35 279.103 11.69C279.103 12.08 279.258 12.395 279.568 12.635C279.878 12.865 280.308 12.98 280.858 12.98C281.398 12.98 281.868 12.86 282.268 12.62C282.678 12.38 282.973 12.03 283.153 11.57L283.438 12.56C283.248 13.03 282.913 13.405 282.433 13.685C281.953 13.955 281.348 14.09 280.618 14.09ZM287.186 14V6.05H288.626V9.425H293.156V6.05H294.596V14H293.156V10.67H288.626V14H287.186Z" fill="black"/>
<path d="M36.6135 31.104C35.9722 31.104 35.3482 31.0043 34.7415 30.805C34.1435 30.6057 33.6539 30.337 33.2725 29.999L33.8705 28.972C34.1739 29.258 34.5682 29.492 35.0535 29.674C35.5389 29.856 36.0589 29.947 36.6135 29.947C37.2895 29.947 37.8139 29.804 38.1865 29.518C38.5679 29.2233 38.7585 28.829 38.7585 28.335C38.7585 27.8583 38.5765 27.477 38.2125 27.191C37.8572 26.8963 37.2895 26.749 36.5095 26.749H35.7815V25.839L38.4855 22.511L38.6675 23.031H33.6885V21.9H39.6945V22.784L37.0035 26.099L36.3275 25.696H36.7565C37.8572 25.696 38.6805 25.943 39.2265 26.437C39.7812 26.931 40.0585 27.5593 40.0585 28.322C40.0585 28.8333 39.9329 29.3013 39.6815 29.726C39.4302 30.1507 39.0489 30.4887 38.5375 30.74C38.0349 30.9827 37.3935 31.104 36.6135 31.104ZM46.4132 27.971V27.048H50.2742V27.971H46.4132ZM47.3362 24.032C48.0469 24.032 48.6839 24.1837 49.2472 24.487C49.8105 24.7903 50.2525 25.2063 50.5732 25.735C50.8939 26.2637 51.0542 26.8703 51.0542 27.555C51.0542 28.231 50.8939 28.8377 50.5732 29.375C50.2525 29.9123 49.8105 30.3327 49.2472 30.636C48.6839 30.9393 48.0469 31.091 47.3362 31.091C46.7469 31.091 46.2009 30.9957 45.6982 30.805C45.2042 30.6143 44.7882 30.337 44.4502 29.973L45.1782 29.245C45.4642 29.5223 45.7805 29.7303 46.1272 29.869C46.4825 29.999 46.8682 30.064 47.2842 30.064C47.7869 30.064 48.2332 29.96 48.6232 29.752C49.0132 29.5353 49.3209 29.2363 49.5462 28.855C49.7802 28.4737 49.8972 28.0403 49.8972 27.555C49.8972 27.0697 49.7802 26.6407 49.5462 26.268C49.3209 25.8867 49.0132 25.5877 48.6232 25.371C48.2332 25.1543 47.7869 25.046 47.2842 25.046C46.8682 25.046 46.4825 25.1153 46.1272 25.254C45.7805 25.3927 45.4642 25.6007 45.1782 25.878L44.4502 25.163C44.7882 24.7903 45.2042 24.5087 45.6982 24.318C46.2009 24.1273 46.7469 24.032 47.3362 24.032ZM53.9358 31V24.877L54.2478 25.202H51.4138V24.11H57.7058V25.202H54.8848L55.1838 24.877V31H53.9358ZM63.2069 31V29.544L63.1419 29.271V26.788C63.1419 26.2593 62.9859 25.852 62.6739 25.566C62.3706 25.2713 61.9113 25.124 61.2959 25.124C60.8886 25.124 60.4899 25.1933 60.0999 25.332C59.7099 25.462 59.3806 25.6397 59.1119 25.865L58.5919 24.929C58.9473 24.643 59.3719 24.4263 59.8659 24.279C60.3686 24.123 60.8929 24.045 61.4389 24.045C62.3836 24.045 63.1116 24.2747 63.6229 24.734C64.1343 25.1933 64.3899 25.8953 64.3899 26.84V31H63.2069ZM60.9449 31.078C60.4336 31.078 59.9829 30.9913 59.5929 30.818C59.2116 30.6447 58.9169 30.4063 58.7089 30.103C58.5009 29.791 58.3969 29.44 58.3969 29.05C58.3969 28.6773 58.4836 28.3393 58.6569 28.036C58.8389 27.7327 59.1293 27.49 59.5279 27.308C59.9353 27.126 60.4813 27.035 61.1659 27.035H63.3499V27.932H61.2179C60.5939 27.932 60.1736 28.036 59.9569 28.244C59.7403 28.452 59.6319 28.7033 59.6319 28.998C59.6319 29.336 59.7663 29.609 60.0349 29.817C60.3036 30.0163 60.6763 30.116 61.1529 30.116C61.6209 30.116 62.0283 30.012 62.3749 29.804C62.7303 29.596 62.9859 29.2927 63.1419 28.894L63.3889 29.752C63.2243 30.1593 62.9339 30.4843 62.5179 30.727C62.1019 30.961 61.5776 31.078 60.9449 31.078ZM74.8142 31L72.6172 27.646L73.6442 27.022L76.2962 31H74.8142ZM71.1872 28.088V27.022H73.4232V28.088H71.1872ZM73.7612 27.698L72.5782 27.542L74.7752 24.11H76.1142L73.7612 27.698ZM67.0792 31H65.5972L68.2362 27.022L69.2632 27.646L67.0792 31ZM71.5642 31H70.3162V24.11H71.5642V31ZM70.6932 28.088H68.4702V27.022H70.6932V28.088ZM68.1322 27.698L65.7792 24.11H67.1052L69.3022 27.542L68.1322 27.698ZM83.3577 31.104C82.7163 31.104 82.0923 31.0043 81.4857 30.805C80.8877 30.6057 80.398 30.337 80.0167 29.999L80.6147 28.972C80.918 29.258 81.3123 29.492 81.7977 29.674C82.283 29.856 82.803 29.947 83.3577 29.947C84.0337 29.947 84.558 29.804 84.9307 29.518C85.312 29.2233 85.5027 28.829 85.5027 28.335C85.5027 27.8583 85.3207 27.477 84.9567 27.191C84.6013 26.8963 84.0337 26.749 83.2537 26.749H82.5257V25.839L85.2297 22.511L85.4117 23.031H80.4327V21.9H86.4387V22.784L83.7477 26.099L83.0717 25.696H83.5007C84.6013 25.696 85.4247 25.943 85.9707 26.437C86.5253 26.931 86.8027 27.5593 86.8027 28.322C86.8027 28.8333 86.677 29.3013 86.4257 29.726C86.1743 30.1507 85.793 30.4887 85.2817 30.74C84.779 30.9827 84.1377 31.104 83.3577 31.104ZM90.8262 31.104C90.1848 31.104 89.5608 31.0043 88.9542 30.805C88.3562 30.6057 87.8665 30.337 87.4852 29.999L88.0832 28.972C88.3865 29.258 88.7808 29.492 89.2662 29.674C89.7515 29.856 90.2672 29.947 90.8132 29.947C91.5065 29.947 92.0395 29.7997 92.4122 29.505C92.7848 29.2103 92.9712 28.816 92.9712 28.322C92.9712 27.984 92.8888 27.6893 92.7242 27.438C92.5595 27.1867 92.2735 26.996 91.8662 26.866C91.4675 26.7273 90.9172 26.658 90.2152 26.658H88.1482L88.6292 21.9H93.7642V23.031H89.1102L89.7862 22.394L89.4092 26.151L88.7332 25.527H90.4882C91.3982 25.527 92.1305 25.644 92.6852 25.878C93.2398 26.112 93.6428 26.437 93.8942 26.853C94.1455 27.2603 94.2712 27.7327 94.2712 28.27C94.2712 28.79 94.1455 29.2667 93.8942 29.7C93.6428 30.1247 93.2615 30.467 92.7502 30.727C92.2475 30.9783 91.6062 31.104 90.8262 31.104ZM104.421 31L101.756 27.646L102.783 27.022L105.89 31H104.421ZM99.4292 31V24.11H100.677V31H99.4292ZM100.3 28.088V27.022H102.575V28.088H100.3ZM102.887 27.698L101.73 27.542L104.369 24.11H105.708L102.887 27.698ZM111.297 31V29.544L111.232 29.271V26.788C111.232 26.2593 111.076 25.852 110.764 25.566C110.46 25.2713 110.001 25.124 109.386 25.124C108.978 25.124 108.58 25.1933 108.19 25.332C107.8 25.462 107.47 25.6397 107.202 25.865L106.682 24.929C107.037 24.643 107.462 24.4263 107.956 24.279C108.458 24.123 108.983 24.045 109.529 24.045C110.473 24.045 111.201 24.2747 111.713 24.734C112.224 25.1933 112.48 25.8953 112.48 26.84V31H111.297ZM109.035 31.078C108.523 31.078 108.073 30.9913 107.683 30.818C107.301 30.6447 107.007 30.4063 106.799 30.103C106.591 29.791 106.487 29.44 106.487 29.05C106.487 28.6773 106.573 28.3393 106.747 28.036C106.929 27.7327 107.219 27.49 107.618 27.308C108.025 27.126 108.571 27.035 109.256 27.035H111.44V27.932H109.308C108.684 27.932 108.263 28.036 108.047 28.244C107.83 28.452 107.722 28.7033 107.722 28.998C107.722 29.336 107.856 29.609 108.125 29.817C108.393 30.0163 108.766 30.116 109.243 30.116C109.711 30.116 110.118 30.012 110.465 29.804C110.82 29.596 111.076 29.2927 111.232 28.894L111.479 29.752C111.314 30.1593 111.024 30.4843 110.608 30.727C110.192 30.961 109.667 31.078 109.035 31.078ZM117.912 31.104C117.34 31.104 116.833 31.013 116.391 30.831C115.958 30.649 115.585 30.3803 115.273 30.025C114.961 29.661 114.723 29.206 114.558 28.66C114.402 28.1053 114.324 27.4553 114.324 26.71C114.324 26.1207 114.376 25.592 114.48 25.124C114.584 24.656 114.731 24.24 114.922 23.876C115.121 23.512 115.364 23.1957 115.65 22.927C115.945 22.6583 116.274 22.4373 116.638 22.264C117.011 22.082 117.418 21.9433 117.86 21.848L121.006 21.146L121.188 22.303L118.289 22.927C118.116 22.9617 117.908 23.0137 117.665 23.083C117.422 23.1523 117.175 23.2607 116.924 23.408C116.673 23.5467 116.439 23.7417 116.222 23.993C116.005 24.2443 115.832 24.5737 115.702 24.981C115.572 25.3797 115.507 25.8737 115.507 26.463C115.507 26.6277 115.511 26.7533 115.52 26.84C115.529 26.9267 115.537 27.0133 115.546 27.1C115.563 27.1867 115.576 27.3167 115.585 27.49L115.065 26.957C115.204 26.4803 115.425 26.0643 115.728 25.709C116.031 25.3537 116.395 25.0807 116.82 24.89C117.253 24.6907 117.726 24.591 118.237 24.591C118.878 24.591 119.446 24.7297 119.94 25.007C120.443 25.2843 120.837 25.6657 121.123 26.151C121.409 26.6363 121.552 27.191 121.552 27.815C121.552 28.4477 121.4 29.0153 121.097 29.518C120.802 30.012 120.382 30.402 119.836 30.688C119.29 30.9653 118.649 31.104 117.912 31.104ZM118.029 30.064C118.471 30.064 118.861 29.9687 119.199 29.778C119.537 29.5787 119.801 29.3143 119.992 28.985C120.183 28.647 120.278 28.27 120.278 27.854C120.278 27.438 120.183 27.0697 119.992 26.749C119.801 26.4283 119.537 26.177 119.199 25.995C118.861 25.8043 118.462 25.709 118.003 25.709C117.57 25.709 117.18 25.8 116.833 25.982C116.486 26.1553 116.218 26.4023 116.027 26.723C115.836 27.035 115.741 27.399 115.741 27.815C115.741 28.231 115.836 28.6123 116.027 28.959C116.226 29.297 116.495 29.5657 116.833 29.765C117.18 29.9643 117.578 30.064 118.029 30.064ZM123.334 31V24.11H124.582V29.128L128.807 24.11H129.938V31H128.69V25.982L124.478 31H123.334ZM132.361 31V24.11H133.609V27.035H137.535V24.11H138.783V31H137.535V28.114H133.609V31H132.361ZM144.277 31.078C143.541 31.078 142.891 30.9263 142.327 30.623C141.773 30.3197 141.339 29.9037 141.027 29.375C140.724 28.8463 140.572 28.2397 140.572 27.555C140.572 26.8703 140.72 26.2637 141.014 25.735C141.318 25.2063 141.729 24.7947 142.249 24.5C142.778 24.1967 143.372 24.045 144.03 24.045C144.698 24.045 145.287 24.1923 145.798 24.487C146.31 24.7817 146.708 25.1977 146.994 25.735C147.289 26.2637 147.436 26.8833 147.436 27.594C147.436 27.646 147.432 27.7067 147.423 27.776C147.423 27.8453 147.419 27.9103 147.41 27.971H141.547V27.074H146.76L146.253 27.386C146.262 26.944 146.171 26.5497 145.98 26.203C145.79 25.8563 145.525 25.5877 145.187 25.397C144.858 25.1977 144.472 25.098 144.03 25.098C143.597 25.098 143.211 25.1977 142.873 25.397C142.535 25.5877 142.271 25.8607 142.08 26.216C141.89 26.5627 141.794 26.9613 141.794 27.412V27.62C141.794 28.0793 141.898 28.491 142.106 28.855C142.323 29.2103 142.622 29.4877 143.003 29.687C143.385 29.8863 143.822 29.986 144.316 29.986C144.724 29.986 145.092 29.9167 145.421 29.778C145.759 29.6393 146.054 29.4313 146.305 29.154L146.994 29.96C146.682 30.324 146.292 30.6013 145.824 30.792C145.365 30.9827 144.849 31.078 144.277 31.078ZM150.446 31V24.877L150.758 25.202H147.924V24.11H154.216V25.202H151.395L151.694 24.877V31H150.446Z" fill="#838383"/>
<path d="M11.4221 27.9966L3.87559 21.7387C2.38306 20.501 1.34783 18.9025 0.900823 17.1454C0.453814 15.3883 0.615098 13.5515 1.36428 11.8672C2.11346 10.1829 3.41689 8.72681 5.10975 7.68307C6.8026 6.63932 8.80885 6.05478 10.8748 6.00337C12.9407 5.95196 14.9736 6.43599 16.7162 7.39425C18.4589 8.3525 19.8331 9.74195 20.6652 11.3869C21.4972 13.0318 21.7496 14.8584 21.3906 16.6355C21.0315 18.4127 20.0771 20.0607 18.648 21.3711L11.4221 27.9966ZM16.9712 19.9806C18.0827 18.9614 18.825 17.6797 19.1042 16.2974C19.3834 14.9152 19.187 13.4946 18.5398 12.2152C17.8927 10.9359 16.8238 9.85525 15.4684 9.10997C14.113 8.36469 12.532 7.98824 10.9252 8.02822C9.31836 8.06821 7.75798 8.52283 6.44133 9.33461C5.12468 10.1464 4.1109 11.2788 3.52818 12.5888C2.94546 13.8988 2.81997 15.3274 3.16759 16.694C3.5152 18.0606 4.3203 19.3039 5.48109 20.2666L11.3508 25.134L16.9712 19.9806ZM11.1519 17.1376C10.5362 17.1529 9.9405 16.9543 9.49573 16.5855C9.05097 16.2167 8.7936 15.7078 8.78024 15.1709C8.76687 14.634 8.99862 14.113 9.42449 13.7225C9.85036 13.3321 10.4355 13.1041 11.0511 13.0888C11.6667 13.0734 12.2625 13.272 12.7072 13.6408C13.152 14.0097 13.4094 14.5185 13.4227 15.0554C13.4361 15.5923 13.2043 16.1133 12.7785 16.5038C12.3526 16.8943 11.7675 17.1223 11.1519 17.1376Z" fill="#101010"/>
</svg>
